# xmcd CD database file
#
# Track frame offsets:
#	150
#	16398
#	32130
#	50562
#	64383
#	80343
#	99389
#	117353
#	134362
#	148263
#	162308
#	178960
#
# Disc length: 2641 seconds
#
# Revision: 0
# Processed by: cddbd v1.5.1PL0 Copyright (c) Steve Scherf et al.
# Submitted via: CDex 1.51
#
DISCID=ae0a4f0c
DTITLE=須藤薫 - 1982 AMAZING TOYS
DYEAR=1982
DGENRE=JPop
TTITLE0=恋の最終列車
TTITLE1=さよならはエスカレーターで
TTITLE2=この恋に夢中
TTITLE3=涙のステップ
TTITLE4=1950 TEAR-DROPS CALENDAR
TTITLE5=RAINY DAY HELLO
TTITLE6=PRETENDER
TTITLE7=さみしいハートにSING A RING
TTITLE8=恋の雨音
TTITLE9=DIARY
TTITLE10=緑のスタジアム
TTITLE11=LITTLE BIRTHDAY
EXTD=YEAR: 1982
EXTT0=
EXTT1=
EXTT2=
EXTT3=
EXTT4=
EXTT5=
EXTT6=
EXTT7=
EXTT8=
EXTT9=
EXTT10=
EXTT11=
PLAYORDER=
